HIERARCHY
ROOT SpineBase
{
  OFFSET 0.000000 0.000000 0.000000
  CHANNELS 6 Xposition Yposition Zposition Zrotation Xrotation Yrotation
  JOINT SpineMid
  {
    OFFSET -0.000000 33.263707 0.000000
    CHANNELS 3 Zrotation Xrotation Yrotation
    JOINT SpineShoulder
    {
      OFFSET 0.310420 24.597959 -0.920654
      CHANNELS 3 Zrotation Xrotation Yrotation
      JOINT Neck
      {
        OFFSET 0.223489 8.107743 -0.680576
        CHANNELS 3 Zrotation Xrotation Yrotation
        JOINT Head
        {
          OFFSET -1.728161 10.291267 3.045250
          CHANNELS 3 Zrotation Xrotation Yrotation
          End Site
          {
            OFFSET 0 0 0
          }
        }
      }
      JOINT ShoulderLeft
      {
        OFFSET -15.368313 -7.701594 -5.942941
        CHANNELS 3 Zrotation Xrotation Yrotation
        JOINT ElbowLeft
        {
          OFFSET -5.432028 -24.916377 4.950794
          CHANNELS 3 Zrotation Xrotation Yrotation
          JOINT WristLeft
          {
            OFFSET -0.243737 -21.961753 2.856741
            CHANNELS 3 Zrotation Xrotation Yrotation
            JOINT HandLeft
            {
              OFFSET -1.600843 -9.393534 4.835700
              CHANNELS 3 Zrotation Xrotation Yrotation
              JOINT HandTipLeft
              {
                OFFSET -0.729973 -5.738787 0.275954
                CHANNELS 3 Zrotation Xrotation Yrotation
                End Site
                {
                  OFFSET 0 0 0
                }
              }
              JOINT ThumbLeft
              {
                OFFSET 0.203953 3.629637 -1.881574
                CHANNELS 3 Zrotation Xrotation Yrotation
                End Site
                {
                  OFFSET 0 0 0
                }
              }
            }
          }
        }
      }
      JOINT ShoulderRight
      {
        OFFSET 17.050189 -6.718102 -5.214692
        CHANNELS 3 Zrotation Xrotation Yrotation
        JOINT ElbowRight
        {
          OFFSET 4.337802 -25.634362 3.831727
          CHANNELS 3 Zrotation Xrotation Yrotation
          JOINT WristRight
          {
            OFFSET 2.162277 -24.883677 7.216287
            CHANNELS 3 Zrotation Xrotation Yrotation
            JOINT HandRight
            {
              OFFSET 0.336265 -5.949144 1.762786
              CHANNELS 3 Zrotation Xrotation Yrotation
              JOINT HandTipRight
              {
                OFFSET -0.160587 -6.539626 -0.098988
                CHANNELS 3 Zrotation Xrotation Yrotation
                End Site
                {
                  OFFSET 0 0 0
                }
              }
              JOINT ThumbRight
              {
                OFFSET -3.909351 1.967631 -2.465477
                CHANNELS 3 Zrotation Xrotation Yrotation
                End Site
                {
                  OFFSET 0 0 0
                }
              }
            }
          }
        }
      }
    }
  }
  JOINT HipLeft
  {
    OFFSET -5.217694 1.064731 -3.668094
    CHANNELS 3 Zrotation Xrotation Yrotation
    JOINT KneeLeft
    {
      OFFSET -1.218622 -40.411072 -4.650610
      CHANNELS 3 Zrotation Xrotation Yrotation
      JOINT AnkleLeft
      {
        OFFSET 0.352860 -35.338234 -1.267978
        CHANNELS 3 Zrotation Xrotation Yrotation
        JOINT FootLeft
        {
          OFFSET 1.003462 -6.594671 -7.801393
          CHANNELS 3 Zrotation Xrotation Yrotation
          End Site
          {
            OFFSET 0 0 0
          }
        }
      }
    }
  }
  JOINT HipRight
  {
    OFFSET 7.112373 1.530067 -3.791520
    CHANNELS 3 Zrotation Xrotation Yrotation
    JOINT KneeRight
    {
      OFFSET 3.234445 -40.359538 -7.189246
      CHANNELS 3 Zrotation Xrotation Yrotation
      JOINT AnkleRight
      {
        OFFSET 1.221308 -34.708789 -4.320831
        CHANNELS 3 Zrotation Xrotation Yrotation
        JOINT FootRight
        {
          OFFSET 1.128336 -2.744357 -13.772981
          CHANNELS 3 Zrotation Xrotation Yrotation
          End Site
          {
            OFFSET 0 0 0
          }
        }
      }
    }
  }
}
MOTION
Frames: 9
Frame Time: 0.033333
-63.466693 81.279246 250.611519 0.000000 0.000000 0.573524 -0.000000 -0.000000 -0.573524 -0.000000 0.000000 0.000000 -0.000000 0.000000 0.000000 0.000000 0.000000 0.000000 -0.000000 0.000000 0.000000 -0.000000 0.000000 0.000000 -0.000000 0.000000 0.000000 -0.000000 0.000000 0.000000 0.000000 0.000000 0.000000 0.000000 0.000000 0.000000 -0.000000 0.000000 0.000000 -0.000000 0.000000 0.000000 -0.000000 0.000000 0.000000 -0.000000 0.000000 0.000000 0.000000 0.000000 0.000000 0.000000 0.000000 0.000000 -0.000000 -0.000000 -0.573524 -0.000000 0.000000 0.000000 -0.000000 0.000000 0.000000 0.000000 0.000000 0.000000 -0.000000 -0.000000 -0.573524 -0.000000 0.000000 0.000000 -0.000000 0.000000 0.000000 0.000000 0.000000 0.000000
-63.434355 81.285692 250.644545 0.014777 0.016615 0.528744 -0.014930 -0.016478 -0.528748 -0.000000 0.000000 0.000000 -0.000000 0.000000 0.000000 0.000000 0.000000 0.000000 -0.000000 0.000000 0.000000 0.089989 0.845200 0.001663 -1.772117 -3.924017 -0.407041 6.507050 5.388623 -0.128188 0.000000 0.000000 0.000000 0.000000 0.000000 0.000000 -0.000000 0.000000 0.000000 -0.000000 0.000000 0.000000 -0.000000 0.000000 0.000000 1.138278 1.893066 -0.082527 0.000000 0.000000 0.000000 0.000000 0.000000 0.000000 -0.014930 -0.016478 -0.528748 -0.000000 0.000000 0.000000 0.913660 10.975814 0.454385 0.000000 0.000000 0.000000 -0.014930 -0.016478 -0.528748 -0.000000 0.000000 0.000000 -0.000000 0.000000 0.000000 0.000000 0.000000 0.000000
-63.405763 81.291348 250.675712 0.024101 0.031416 0.495637 -0.024371 -0.031206 -0.495650 -0.000000 0.000000 0.000000 -0.000000 0.000000 0.000000 0.000000 0.000000 0.000000 0.806347 0.306221 0.091495 -0.650427 1.218107 -0.093931 -3.281043 -7.231250 -0.852108 11.191103 9.595386 -0.738095 0.000000 0.000000 0.000000 0.000000 0.000000 0.000000 -0.000000 0.000000 0.000000 -0.000000 0.000000 0.000000 -0.834934 0.002740 -0.247331 2.584617 3.386639 0.085928 0.000000 0.000000 0.000000 0.000000 0.000000 0.000000 -0.024371 -0.031206 -0.495650 -0.000000 0.000000 0.000000 1.531513 18.731114 0.677736 0.000000 0.000000 0.000000 -0.024371 -0.031206 -0.495650 -0.000000 0.000000 0.000000 -0.000000 0.000000 0.000000 0.000000 0.000000 0.000000
-63.380917 81.296213 250.705020 0.027967 0.044401 0.474155 -0.028333 -0.044168 -0.474176 -0.000000 0.000000 0.000000 -0.000000 0.000000 0.000000 0.000000 0.000000 0.000000 1.066697 0.414526 0.118049 -0.869253 1.638527 -0.125423 -4.437232 -9.796836 -1.250023 14.482732 12.697118 -1.470825 0.000000 0.000000 0.000000 0.000000 0.000000 0.000000 -0.000000 0.000000 0.000000 -0.000000 0.000000 0.000000 -1.313161 0.122194 -0.381177 3.154959 4.349110 0.178170 0.000000 0.000000 0.000000 0.000000 0.000000 0.000000 -0.028333 -0.044168 -0.474176 -0.000000 0.000000 0.000000 1.955073 24.046962 0.784516 0.000000 0.000000 0.000000 -0.028333 -0.044168 -0.474176 -0.000000 0.000000 0.000000 -0.000000 0.000000 0.000000 0.000000 0.000000 0.000000
-63.359816 81.300288 250.732467 0.026372 0.055569 0.464260 -0.026822 -0.055354 -0.464286 -0.000000 0.000000 0.000000 0.301311 -0.830745 -0.226867 0.000000 0.000000 0.000000 1.232060 0.492793 0.132506 -1.015874 1.951076 -0.145469 -5.165355 -11.537086 -1.523637 16.571922 14.748911 -2.102460 0.000000 0.000000 0.000000 0.000000 0.000000 0.000000 -0.000000 0.000000 0.000000 -0.000000 0.000000 0.000000 -1.825616 0.314348 -0.519102 3.236106 4.822496 0.325787 0.000000 0.000000 0.000000 0.000000 0.000000 0.000000 -0.026822 -0.055354 -0.464286 -0.000000 0.000000 0.000000 2.241376 27.580832 0.833236 0.000000 0.000000 0.000000 -0.026822 -0.055354 -0.464286 -0.000000 0.000000 0.000000 -0.000000 0.000000 0.000000 0.000000 0.000000 0.000000
-63.342462 81.303573 250.758056 0.019313 0.064919 0.465927 -0.019841 -0.064760 -0.465949 -0.000000 0.000000 0.000000 0.304048 -0.962295 -0.249522 0.000000 0.000000 0.000000 1.302556 0.540967 0.135199 -1.089901 2.164170 -0.153588 -5.419174 -12.413473 -1.619180 17.540234 15.800782 -2.497483 0.000000 0.000000 0.000000 0.000000 0.000000 0.000000 -0.000000 0.000000 0.000000 -0.000000 0.000000 0.000000 -2.367565 0.574220 -0.659049 2.827385 4.806455 0.526238 0.000000 0.000000 0.000000 0.000000 0.000000 0.000000 -0.019841 -0.064760 -0.465949 -0.000000 0.000000 0.000000 2.422621 29.773380 0.853533 0.000000 0.000000 0.000000 -0.019841 -0.064760 -0.465949 -0.000000 0.000000 0.000000 -0.000000 0.000000 0.000000 0.000000 0.000000 0.000000
-63.319097 81.306799 250.785705 0.014398 0.072696 0.465508 -0.014988 -0.072577 -0.465527 -0.000000 0.000000 0.000000 0.244874 -1.099083 -0.255313 0.000000 0.000000 0.000000 1.176839 0.581776 0.101362 -1.589621 1.964808 -0.190988 -2.834318 -11.310775 -0.457170 14.454933 13.917552 -2.470767 0.000000 0.000000 0.000000 0.000000 0.000000 0.000000 -0.000000 0.000000 0.000000 -0.000000 0.000000 0.000000 -3.203183 1.143910 -0.856606 0.473672 3.401154 0.903720 0.000000 0.000000 0.000000 0.000000 0.000000 0.000000 -0.014988 -0.072577 -0.465527 -0.000000 0.000000 0.000000 2.398202 30.171358 0.919815 0.000000 0.000000 0.000000 -0.014988 -0.072577 -0.465527 -0.000000 0.000000 0.000000 -0.000000 0.000000 0.000000 0.000000 0.000000 0.000000
-63.307751 81.308304 250.811148 -0.004131 0.080805 0.488607 0.003442 -0.080838 -0.488602 -0.000000 0.000000 0.000000 0.156502 -1.217656 -0.249857 0.000000 0.000000 0.000000 0.913489 0.578128 0.051003 -1.178254 2.168906 -0.121966 -2.380687 -10.982799 -0.193323 14.118215 13.237721 -2.521940 0.000000 0.000000 0.000000 0.000000 0.000000 0.000000 -0.000000 0.000000 0.000000 -0.000000 0.000000 0.000000 -3.981560 1.496718 -1.049711 -0.858594 2.658586 1.174034 0.000000 0.000000 0.000000 0.000000 0.000000 0.000000 0.003442 -0.080838 -0.488602 -0.000000 0.000000 0.000000 2.302830 28.501253 0.858426 0.000000 0.000000 0.000000 0.003442 -0.080838 -0.488602 -0.000000 0.000000 0.000000 -0.000000 0.000000 0.000000 0.000000 0.000000 0.000000
-63.309458 81.308214 250.827148 -0.029310 0.079076 0.530921 0.028576 -0.079344 -0.530881 -0.000000 0.000000 0.000000 0.077977 -1.196748 -0.223897 0.000000 0.000000 0.000000 0.669936 0.515039 0.017858 -0.596980 2.111694 -0.044743 -2.724276 -9.715455 -0.404829 14.663603 13.085998 -2.373087 0.000000 0.000000 0.000000 0.000000 0.000000 0.000000 -0.000000 0.000000 0.000000 -0.000000 0.000000 0.000000 -4.401668 1.857703 -1.136375 -1.388118 1.870414 1.276197 0.000000 0.000000 0.000000 0.000000 0.000000 0.000000 0.028576 -0.079344 -0.530881 -0.000000 0.000000 0.000000 2.323893 28.503315 0.835389 0.000000 0.000000 0.000000 0.028576 -0.079344 -0.530881 -0.000000 0.000000 0.000000 -0.000000 0.000000 0.000000 0.000000 0.000000 0.000000
